<svg xmlns="http://www.w3.org/2000/svg" viewBox="0 0 1600 900" fill="none">
  <rect width="1600" height="900" fill="#000000"/>
  <rect x="36" y="36" width="1528" height="828" rx="44" fill="url(#panel)" stroke="#FFFFFF" stroke-opacity=".12"/>
  <circle cx="288" cy="184" r="220" fill="#D24C74" fill-opacity=".12"/>
  <circle cx="1298" cy="178" r="190" fill="#F3A873" fill-opacity=".10"/>
  <path d="M86 516h174l34-84 48 164 62-250 72 212 58-108h156" stroke="#FFFFFF" stroke-width="9" stroke-linecap="round" stroke-linejoin="round"/>
  <path d="M868 340h100l28-40 44 114 46-174 38 136 30-78h128" stroke="#D24C74" stroke-width="8" stroke-linecap="round" stroke-linejoin="round" opacity=".9"/>
  <path d="M868 558h104l30-72 34 124 52-186 42 150 26-60h148" stroke="#8BC8A0" stroke-width="8" stroke-linecap="round" stroke-linejoin="round" opacity=".82"/>
  <text x="110" y="190" fill="#F6EFE8" font-size="28" font-family="Georgia, serif" letter-spacing="10">SIGNAL IN MOTION</text>
  <text x="108" y="328" fill="#F6EFE8" font-size="132" font-family="Georgia, serif">Vital</text>
  <text x="108" y="452" fill="#D24C74" font-size="132" font-family="Georgia, serif">Trace</text>
  <text x="110" y="618" fill="#FFFFFF" fill-opacity=".66" font-size="28" font-family="Arial, sans-serif">Signal review, quality checks, compare views, region notes, and report export.</text>
  <rect x="108" y="678" width="236" height="64" rx="32" fill="url(#cta)"/>
  <text x="154" y="719" fill="#F6EFE8" font-size="22" font-family="Arial, sans-serif" letter-spacing="4">LAUNCH STUDIO</text>
  <defs>
    <linearGradient id="panel" x1="84" y1="92" x2="1474" y2="818" gradientUnits="userSpaceOnUse">
      <stop stop-color="#FFFFFF" stop-opacity=".10"/>
      <stop offset="1" stop-color="#FFFFFF" stop-opacity=".03"/>
    </linearGradient>
    <linearGradient id="cta" x1="108" y1="678" x2="344" y2="742" gradientUnits="userSpaceOnUse">
      <stop stop-color="#D24C74" stop-opacity=".82"/>
      <stop offset="1" stop-color="#853953" stop-opacity=".92"/>
    </linearGradient>
  </defs>
</svg>
